<svg width="46" height="44" viewBox="0 0 46 44" fill="none" xmlns="http://www.w3.org/2000/svg">
    <symbol id="icon-like-bold" viewBox="0 0 46 44" >
        <!--g filter="url(#filter0_d)"-->
        <path d="M23 30.7936C22.7153 30.7936 22.4407 30.6904 22.2268 30.5031C21.4189 29.7966 20.6399 29.1327 19.9527 28.547L19.9491 28.544C17.9342 26.8269 16.1943 25.3441 14.9836 23.8833C13.6303 22.2503 13 20.702 13 19.0106C13 17.3672 13.5635 15.8511 14.5866 14.7413C15.6219 13.6184 17.0425 13 18.5871 13C19.7416 13 20.7989 13.365 21.7295 14.0847C22.1992 14.4481 22.6249 14.8927 23 15.4113C23.3752 14.8927 23.8008 14.4481 24.2706 14.0847C25.2012 13.365 26.2585 13 27.413 13C28.9575 13 30.3782 13.6184 31.4135 14.7413C32.4366 15.8511 33 17.3672 33 19.0106C33 20.702 32.3698 22.2503 31.0165 23.8832C29.8058 25.3441 28.066 26.8268 26.0514 28.5437C25.363 29.1302 24.5828 29.7952 23.773 30.5034C23.5592 30.6904 23.2846 30.7936 23 30.7936ZM18.5871 14.1716C17.3736 14.1716 16.2588 14.6559 15.4478 15.5354C14.6248 16.4282 14.1714 17.6623 14.1714 19.0106C14.1714 20.4332 14.7001 21.7054 15.8856 23.1358C17.0314 24.5184 18.7356 25.9707 20.7089 27.6524L20.7125 27.6555C21.4024 28.2434 22.1844 28.9099 22.9983 29.6216C23.8171 28.9085 24.6003 28.2409 25.2915 27.6521C27.2647 25.9704 28.9688 24.5184 30.1145 23.1358C31.2998 21.7054 31.8285 20.4332 31.8285 19.0106C31.8285 17.6623 31.3752 16.4282 30.5522 15.5354C29.7413 14.6559 28.6263 14.1716 27.413 14.1716C26.524 14.1716 25.7078 14.4542 24.9871 15.0114C24.3449 15.5082 23.8975 16.1363 23.6352 16.5757C23.5003 16.8017 23.2629 16.9366 23 16.9366C22.7371 16.9366 22.4996 16.8017 22.3648 16.5757C22.1026 16.1363 21.6552 15.5082 21.0128 15.0114C20.2922 14.4542 19.476 14.1716 18.5871 14.1716Z" stroke="#DDE2EF" stroke-width="2"/>
        <!--/g-->
        <defs>
        <filter id="filter0_d" x="0" y="0" width="46" height="43.7936" filterUnits="userSpaceOnUse" color-interpolation-filters="sRGB">
        <feFlood flood-opacity="0" result="BackgroundImageFix"/>
        <feColorMatrix in="SourceAlpha" type="matrix" values="0 0 0 0 0 0 0 0 0 0 0 0 0 0 0 0 0 0 127 0"/>
        <feOffset/>
        <feGaussianBlur stdDeviation="6"/>
        <feColorMatrix type="matrix" values="0 0 0 0 0 0 0 0 0 0 0 0 0 0 0 0 0 0 1 0"/>
        <feBlend mode="normal" in2="BackgroundImageFix" result="effect1_dropShadow"/>
        <feBlend mode="normal" in="SourceGraphic" in2="effect1_dropShadow" result="shape"/>
        </filter>
        </defs>
    </symbol>
</svg>
