<svg width="13" height="6" viewBox="0 0 13 6" fill="none" xmlns="http://www.w3.org/2000/svg">
  <path d="M6.05541 0.159574L0.642561 4.60972C0.517267 4.71265 0.448242 4.85004 0.448242 4.99655C0.448242 5.14305 0.517267 5.28045 0.642561 5.38338L1.04109 5.7111C1.30077 5.92435 1.72284 5.92435 1.98213 5.7111L6.52751 1.9742L11.0779 5.71524C11.2032 5.81817 11.3703 5.875 11.5484 5.875C11.7267 5.875 11.8937 5.81817 12.0191 5.71524L12.4175 5.38752C12.5428 5.28451 12.6118 5.1472 12.6118 5.00069C12.6118 4.85419 12.5428 4.71679 12.4175 4.61387L6.99971 0.159574C6.87402 0.0564039 6.7062 -0.00026248 6.5278 6.27292e-05C6.34871 -0.000262467 6.181 0.0564039 6.05541 0.159574Z" fill="#919191"/>
</svg>
