<svg width="24" height="24" viewBox="0 0 24 24" fill="none" xmlns="http://www.w3.org/2000/svg">
  <path d="M21.9282 20.2421L20.2102 17.3801C19.4182 16.0592 18.9992 14.5472 18.9992 13.0061V10.4991C18.9992 6.64015 15.8582 3.49915 11.9992 3.49915C8.14023 3.49915 4.99923 6.64015 4.99923 10.4991V13.0061C4.99923 14.5472 4.58022 16.0592 3.78822 17.3801L2.0702 20.2421C1.9772 20.3961 1.97518 20.5892 2.06322 20.7452C2.15223 20.9021 2.3192 20.9992 2.4992 20.9992H21.4992C21.6792 20.9992 21.8462 20.9022 21.9352 20.7452C22.0232 20.5891 22.0212 20.3961 21.9282 20.2421ZM3.38223 19.9991L4.64523 17.8941C5.53122 16.4181 5.99922 14.7281 5.99922 13.0061V10.4991C5.99922 7.19013 8.69022 4.49913 11.9992 4.49913C15.3082 4.49913 17.9992 7.19013 17.9992 10.4991V13.0061C17.9992 14.7281 18.4672 16.4181 19.3522 17.8941L20.6162 19.9991H3.38223Z" fill="#1F1F1F"/>
  <path d="M12.0009 0C10.8979 0 10.0009 0.897 10.0009 2.00002V4.00003C10.0009 4.27598 10.2249 4.5 10.5009 4.5C10.7769 4.5 11.0009 4.27598 11.0009 3.99998V2.00002C11.0009 1.44802 11.4489 1.00003 12.0009 1.00003C12.5529 1.00003 13.0009 1.44802 13.0009 2.00002V4.00003C13.0009 4.27598 13.2249 4.5 13.5009 4.5C13.7769 4.5 14.0009 4.27598 14.0009 3.99998V2.00002C14.0009 0.897 13.1039 0 12.0009 0Z" fill="#1F1F1F"/>
  <path d="M14.164 20.2469C14.023 20.0089 13.718 19.9309 13.479 20.0679C13.24 20.2079 13.16 20.5149 13.3 20.7529C13.43 20.9739 13.501 21.2389 13.501 21.4999C13.501 22.3269 12.828 22.9999 12.001 22.9999C11.174 22.9999 10.501 22.3269 10.501 21.4999C10.501 21.2389 10.572 20.9739 10.702 20.7529C10.841 20.5138 10.761 20.2078 10.523 20.0679C10.282 19.9309 9.97798 20.0089 9.83801 20.2469C9.617 20.6249 9.5 21.0579 9.5 21.4999C9.50005 22.8789 10.621 23.9999 12 23.9999C13.379 23.9999 14.5 22.8789 14.502 21.4999C14.502 21.0579 14.385 20.6249 14.164 20.2469Z" fill="#1F1F1F"/>
</svg>
