<svg width="20" height="23" viewBox="0 0 20 23" fill="none" xmlns="http://www.w3.org/2000/svg">
    <symbol id="bell" viewBox="0 0 20 23" >
        <path d="M10 22.5C11.21 22.5 12.2 21.51 12.2 20.3H7.80002C7.80002 21.51 8.79002 22.5 10 22.5ZM17.15 15.9V9.85C17.15 6.44 14.84 3.69 11.65 2.92V2.15C11.65 1.27 10.88 0.5 10 0.5C9.12002 0.5 8.35002 1.27 8.35002 2.15V2.92C5.16002 3.69 2.85002 6.44 2.85002 9.85V15.9L0.650024 18.1V19.2H19.35V18.1L17.15 15.9ZM14.95 17H5.05002V9.85C5.05002 7.1 7.25002 4.9 10 4.9C12.75 4.9 14.95 7.1 14.95 9.85V17Z" fill="#C4C4C4"/>
    </symbol>
</svg>
