<svg width="20" height="20" viewBox="0 0 20 20" fill="none" xmlns="http://www.w3.org/2000/svg">
  <g clip-path="url(#clip0)">
    <path d="M14.7412 12.8662C13.7073 12.8662 12.8662 13.7073 12.8662 14.7412C12.8662 15.7752 13.7073 16.6162 14.7412 16.6162C15.7752 16.6162 16.6162 15.7752 16.6162 14.7412C16.6162 13.7073 15.7752 12.8662 14.7412 12.8662ZM14.7412 15.3662C14.3964 15.3662 14.1162 15.0861 14.1162 14.7412C14.1162 14.3964 14.3964 14.1162 14.7412 14.1162C15.0861 14.1162 15.3662 14.3964 15.3662 14.7412C15.3662 15.0861 15.0861 15.3662 14.7412 15.3662Z" fill="#B4BABC"/>
    <path d="M5.73437 12.8662C4.70043 12.8662 3.85938 13.7073 3.85938 14.7412C3.85938 15.7752 4.70043 16.6162 5.73437 16.6162C6.76831 16.6162 7.60937 15.7752 7.60937 14.7412C7.60937 13.7073 6.76831 12.8662 5.73437 12.8662ZM5.73437 15.3662C5.38952 15.3662 5.10936 15.0861 5.10936 14.7412C5.10936 14.3964 5.38952 14.1162 5.73437 14.1162C6.07923 14.1162 6.35938 14.3964 6.35938 14.7412C6.35938 15.0861 6.07923 15.3662 5.73437 15.3662Z" fill="#B4BABC"/>
    <path d="M19.375 3.75H18.75V3.12498C18.75 1.40196 17.348 0 15.625 0H4.37501C2.65198 0 1.24999 1.40196 1.24999 3.12498V3.75H0.625011C0.279535 3.75 0 4.02953 0 4.37501V8.125C0 8.47048 0.279535 8.75001 0.625011 8.75001H1.25002V16.875C1.25002 17.6888 1.77407 18.376 2.50001 18.6349V19.375C2.50001 19.7205 2.77954 20 3.12502 20H5.62503C5.97051 20 6.25004 19.7205 6.25004 19.375V18.75H13.75V19.375C13.75 19.7205 14.0296 20 14.375 20H16.8751C17.2205 20 17.5001 19.7205 17.5001 19.375V18.6349C18.226 18.376 18.7501 17.6888 18.7501 16.875V8.75001H19.3751C19.7205 8.75001 20.0001 8.47048 20.0001 8.125V4.37501C20 4.02953 19.7205 3.75 19.375 3.75ZM15.625 1.24999C16.6589 1.24999 17.5 2.09104 17.5 3.12498V10H10.625V1.24999H15.625ZM4.37501 1.24999H9.37499V10H2.50001V3.12498C2.50001 2.09108 3.34107 1.24999 4.37501 1.24999ZM16.875 17.5H3.12498C2.78013 17.5 2.49997 17.2198 2.49997 16.875V11.25H17.5V16.875C17.5 17.2198 17.2198 17.5 16.875 17.5Z" fill="#B4BABC"/>
  </g>
  <defs>
    <clipPath id="clip0">
      <rect width="20" height="20" fill="white"/>
    </clipPath>
  </defs>
</svg>

