<svg width="24" height="24" viewBox="0 0 24 24" fill="none" xmlns="http://www.w3.org/2000/svg">
  <g clip-path="url(#clip0)">
    <path d="M21.414 1.50623H20.2344V0.703125C20.2344 0.314812 19.9196 0 19.5313 0C19.143 0 18.8281 0.314812 18.8281 0.703125V1.50623H17.2219V0.703125C17.2219 0.314812 16.9071 0 16.5187 0C16.1304 0 15.8156 0.314812 15.8156 0.703125V1.50623H14.2094V0.703125C14.2094 0.314812 13.8945 0 13.5062 0C13.1179 0 12.8031 0.314812 12.8031 0.703125V1.50623H11.1968V0.703125C11.1968 0.314812 10.882 0 10.4937 0C10.1054 0 9.79055 0.314812 9.79055 0.703125V1.50623H8.18438V0.703125C8.18438 0.314812 7.86956 0 7.48125 0C7.09294 0 6.77813 0.314812 6.77813 0.703125V1.50623H5.17186V0.703125C5.17186 0.314812 4.85705 0 4.46873 0C4.08042 0 3.76561 0.314812 3.76561 0.703125V1.50623H2.58595C1.16006 1.50623 0 2.6663 0 4.09219V21.414C0 22.8399 1.16006 24 2.58595 24H18.7781C21.6575 24 24 21.6575 24 18.7781V4.09219C24 2.6663 22.8399 1.50623 21.414 1.50623ZM2.58595 2.91248H3.76561V3.71564C3.76561 4.10395 4.08042 4.41877 4.46873 4.41877C4.85705 4.41877 5.17186 4.10395 5.17186 3.71564V2.91248H6.77813V3.71564C6.77813 4.10395 7.09294 4.41877 7.48125 4.41877C7.86956 4.41877 8.18438 4.10395 8.18438 3.71564V2.91248H9.79064V3.71564C9.79064 4.10395 10.1055 4.41877 10.4938 4.41877C10.8821 4.41877 11.1969 4.10395 11.1969 3.71564V2.91248H12.8032V3.71564C12.8032 4.10395 13.118 4.41877 13.5063 4.41877C13.8946 4.41877 14.2095 4.10395 14.2095 3.71564V2.91248H15.8156V3.71564C15.8156 4.10395 16.1304 4.41877 16.5187 4.41877C16.9071 4.41877 17.2219 4.10395 17.2219 3.71564V2.91248H18.8281V3.71564C18.8281 4.10395 19.143 4.41877 19.5313 4.41877C19.9196 4.41877 20.2344 4.10395 20.2344 3.71564V2.91248H21.414C22.0645 2.91248 22.5938 3.4417 22.5938 4.09219V6.02498H1.40625V4.09219C1.40625 3.4417 1.93547 2.91248 2.58595 2.91248ZM18.7781 22.5938C16.6742 22.5938 14.9625 20.8821 14.9625 18.7781C14.9625 16.6742 16.6742 14.9625 18.7781 14.9625C20.8821 14.9625 22.5938 16.6742 22.5938 18.7781C22.5938 20.8821 20.8821 22.5938 18.7781 22.5938ZM18.7781 13.5563C15.8988 13.5563 13.5563 15.8988 13.5563 18.7781C13.5563 20.2825 14.1959 21.64 15.2172 22.5938H2.58595C1.93547 22.5938 1.40625 22.0645 1.40625 21.414V7.43123H22.5938V15.2173C21.64 14.196 20.2824 13.5563 18.7781 13.5563Z" fill="#B4BABC"/>
    <path d="M7.48145 9.79102C7.29629 9.79102 7.11488 9.86602 6.9841 9.9968C6.85332 10.1276 6.77832 10.309 6.77832 10.4941C6.77832 10.6788 6.85332 10.8602 6.9841 10.991C7.11535 11.1218 7.29629 11.1968 7.48145 11.1968C7.6666 11.1968 7.84754 11.1218 7.97879 10.991C8.10957 10.8602 8.18457 10.6788 8.18457 10.4941C8.18457 10.309 8.10957 10.1276 7.97879 9.9968C7.84801 9.86602 7.6666 9.79102 7.48145 9.79102Z" fill="#B4BABC"/>
    <path d="M10.4941 9.79102C10.309 9.79102 10.1276 9.86602 9.9968 9.9968C9.86602 10.1276 9.79102 10.309 9.79102 10.4941C9.79102 10.6788 9.86602 10.8602 9.9968 10.991C10.1276 11.1218 10.309 11.1968 10.4941 11.1968C10.6789 11.1968 10.8602 11.1218 10.991 10.991C11.1218 10.8602 11.1973 10.6788 11.1973 10.4941C11.1973 10.309 11.1218 10.1276 10.991 9.9968C10.8602 9.86602 10.6788 9.79102 10.4941 9.79102Z" fill="#B4BABC"/>
    <path d="M13.5059 9.79102C13.3207 9.79102 13.1398 9.86602 13.009 9.9968C12.8782 10.1276 12.8032 10.309 12.8032 10.4941C12.8032 10.6793 12.8782 10.8602 13.009 10.991C13.1398 11.1218 13.3212 11.1968 13.5059 11.1968C13.691 11.1968 13.8724 11.1218 14.0032 10.991C14.134 10.8602 14.209 10.6788 14.209 10.4941C14.209 10.309 14.134 10.1276 14.0032 9.9968C13.8724 9.86602 13.691 9.79102 13.5059 9.79102Z" fill="#B4BABC"/>
    <path d="M16.5186 9.79102C16.3334 9.79102 16.152 9.86602 16.0212 9.9968C15.8904 10.1276 15.8154 10.309 15.8154 10.4941C15.8154 10.6788 15.8904 10.8602 16.0212 10.991C16.1525 11.1218 16.3334 11.1968 16.5186 11.1968C16.7037 11.1968 16.8851 11.1218 17.0159 10.991C17.1467 10.8602 17.2217 10.6788 17.2217 10.4941C17.2217 10.309 17.1467 10.1276 17.0159 9.9968C16.8851 9.86602 16.7037 9.79102 16.5186 9.79102Z" fill="#B4BABC"/>
    <path d="M19.5312 9.79102C19.3461 9.79102 19.1647 9.86602 19.0339 9.9968C18.9031 10.1276 18.8281 10.309 18.8281 10.4941C18.8281 10.6788 18.9031 10.8602 19.0339 10.991C19.1646 11.1218 19.3461 11.1968 19.5312 11.1968C19.7164 11.1968 19.8973 11.1218 20.0281 10.991C20.1589 10.8602 20.2344 10.6788 20.2344 10.4941C20.2344 10.309 20.1589 10.1276 20.0281 9.9968C19.8973 9.86602 19.7164 9.79102 19.5312 9.79102Z" fill="#B4BABC"/>
    <path d="M4.46875 12.8027C4.28359 12.8027 4.10266 12.8777 3.97188 13.0085C3.84063 13.1398 3.76562 13.3212 3.76562 13.5059C3.76562 13.691 3.84063 13.8724 3.97188 14.0032C4.10266 14.134 4.28359 14.209 4.46875 14.209C4.65391 14.209 4.83531 14.134 4.96609 14.0032C5.09687 13.8724 5.17187 13.691 5.17187 13.5059C5.17187 13.3212 5.09687 13.1397 4.96609 13.0085C4.83531 12.8777 4.65391 12.8027 4.46875 12.8027Z" fill="#B4BABC"/>
    <path d="M7.48145 12.8027C7.29629 12.8027 7.11488 12.8777 6.9841 13.0085C6.85332 13.1398 6.77832 13.3212 6.77832 13.5059C6.77832 13.691 6.85332 13.8724 6.9841 14.0032C7.11535 14.134 7.29629 14.209 7.48145 14.209C7.6666 14.209 7.84754 14.134 7.97879 14.0032C8.10957 13.8724 8.18457 13.691 8.18457 13.5059C8.18457 13.3207 8.10957 13.1397 7.97879 13.0085C7.84754 12.8777 7.6666 12.8027 7.48145 12.8027Z" fill="#B4BABC"/>
    <path d="M10.4941 12.8027C10.309 12.8027 10.1276 12.8777 9.9968 13.0085C9.86602 13.1398 9.79102 13.3207 9.79102 13.5059C9.79102 13.691 9.86602 13.8724 9.9968 14.0032C10.1276 14.134 10.309 14.209 10.4941 14.209C10.6789 14.209 10.8602 14.134 10.991 14.0032C11.1218 13.8724 11.1973 13.691 11.1973 13.5059C11.1973 13.3212 11.1218 13.1397 10.991 13.0085C10.8602 12.8777 10.6793 12.8027 10.4941 12.8027Z" fill="#B4BABC"/>
    <path d="M13.5059 12.8027C13.3207 12.8027 13.1398 12.8777 13.009 13.0085C12.8782 13.1398 12.8027 13.3212 12.8027 13.5059C12.8027 13.691 12.8782 13.8724 13.009 14.0032C13.1398 14.134 13.3207 14.209 13.5059 14.209C13.691 14.209 13.8724 14.134 14.0032 14.0032C14.134 13.8724 14.209 13.691 14.209 13.5059C14.209 13.3212 14.134 13.1397 14.0032 13.0085C13.8724 12.8777 13.691 12.8027 13.5059 12.8027Z" fill="#B4BABC"/>
    <path d="M4.46875 15.8154C4.28406 15.8154 4.10266 15.8905 3.97188 16.0213C3.84109 16.152 3.76562 16.3334 3.76562 16.5186C3.76562 16.7037 3.84109 16.8847 3.97188 17.0159C4.10266 17.1467 4.28406 17.2217 4.46875 17.2217C4.65391 17.2217 4.83531 17.1467 4.96609 17.0159C5.09687 16.8846 5.17187 16.7037 5.17187 16.5186C5.17187 16.3334 5.09687 16.1525 4.96609 16.0213C4.83531 15.8905 4.65391 15.8154 4.46875 15.8154Z" fill="#B4BABC"/>
    <path d="M7.48145 15.8154C7.29629 15.8154 7.11488 15.8905 6.9841 16.0213C6.85332 16.152 6.77832 16.3334 6.77832 16.5186C6.77832 16.7037 6.85332 16.8847 6.9841 17.0159C7.11535 17.1467 7.29629 17.2217 7.48145 17.2217C7.6666 17.2217 7.84754 17.1467 7.97879 17.0159C8.10957 16.8846 8.18457 16.7037 8.18457 16.5186C8.18457 16.3334 8.10957 16.152 7.97879 16.0213C7.84754 15.8905 7.6666 15.8154 7.48145 15.8154Z" fill="#B4BABC"/>
    <path d="M10.4941 15.8154C10.309 15.8154 10.1276 15.8905 9.9968 16.0213C9.86602 16.152 9.79102 16.3334 9.79102 16.5186C9.79102 16.7037 9.86602 16.8847 9.9968 17.0159C10.1276 17.1467 10.309 17.2217 10.4941 17.2217C10.6789 17.2217 10.8602 17.1467 10.991 17.0159C11.1223 16.8846 11.1973 16.7037 11.1973 16.5186C11.1973 16.3334 11.1223 16.152 10.991 16.0213C10.8602 15.8905 10.6793 15.8154 10.4941 15.8154Z" fill="#B4BABC"/>
    <path d="M4.46875 18.8281C4.28359 18.8281 4.10266 18.9031 3.97188 19.0339C3.84063 19.1647 3.76562 19.3461 3.76562 19.5308C3.76562 19.7159 3.84063 19.8973 3.97188 20.0281C4.10266 20.1589 4.28406 20.2344 4.46875 20.2344C4.65391 20.2344 4.83484 20.1589 4.96609 20.0281C5.09687 19.8973 5.17187 19.7159 5.17187 19.5308C5.17187 19.3461 5.09687 19.1647 4.96609 19.0339C4.83531 18.9031 4.65391 18.8281 4.46875 18.8281Z" fill="#B4BABC"/>
    <path d="M7.48145 18.8281C7.29629 18.8281 7.11535 18.9031 6.9841 19.0339C6.85332 19.1647 6.77832 19.3461 6.77832 19.5308C6.77832 19.7159 6.85332 19.8973 6.9841 20.0281C7.11535 20.1589 7.29629 20.2344 7.48145 20.2344C7.6666 20.2344 7.84754 20.1589 7.97879 20.0281C8.10957 19.8973 8.18457 19.7159 8.18457 19.5308C8.18457 19.3461 8.10957 19.1647 7.97879 19.0339C7.84754 18.9031 7.6666 18.8281 7.48145 18.8281Z" fill="#B4BABC"/>
    <path d="M10.4941 18.8281C10.309 18.8281 10.1276 18.9031 9.9968 19.0339C9.86602 19.1647 9.79102 19.3461 9.79102 19.5308C9.79102 19.7159 9.86602 19.8973 9.9968 20.0281C10.1276 20.1589 10.309 20.2344 10.4941 20.2344C10.6789 20.2344 10.8602 20.1589 10.991 20.0281C11.1218 19.8973 11.1973 19.7159 11.1973 19.5308C11.1973 19.3461 11.1218 19.1647 10.991 19.0339C10.8602 18.9031 10.6788 18.8281 10.4941 18.8281Z" fill="#B4BABC"/>
    <path d="M20.2846 18.0756H19.4814V17.2725C19.4814 16.8841 19.1666 16.5693 18.7783 16.5693C18.39 16.5693 18.0752 16.8841 18.0752 17.2725V18.7787C18.0752 19.167 18.39 19.4818 18.7783 19.4818H20.2846C20.6729 19.4818 20.9877 19.167 20.9877 18.7787C20.9877 18.3903 20.6729 18.0756 20.2846 18.0756Z" fill="#B4BABC"/>
  </g>
  <defs>
    <clipPath id="clip0">
      <rect width="24" height="24" fill="white"/>
    </clipPath>
  </defs>
</svg>
