<svg width="24" height="24" viewBox="0 0 24 24" fill="none" xmlns="http://www.w3.org/2000/svg">
  <path d="M20.4853 3.51469C18.2188 1.24819 15.2053 0 12 0C8.79469 0 5.78119 1.24819 3.51469 3.51469C1.24823 5.78119 0 8.79469 0 12C0 15.2053 1.24823 18.2188 3.51469 20.4853C5.78119 22.7518 8.79469 24 12 24C15.2053 24 18.2188 22.7518 20.4853 20.4853C22.7518 18.2188 24 15.2053 24 12C24 8.79469 22.7518 5.78119 20.4853 3.51469ZM12 22.5938C6.15858 22.5938 1.40625 17.8414 1.40625 12C1.40625 6.15858 6.15858 1.40625 12 1.40625C17.8414 1.40625 22.5938 6.15858 22.5938 12C22.5938 17.8414 17.8414 22.5938 12 22.5938Z" fill="#B4BABC"/>
  <path d="M12.7529 11.2966H11.2466C10.3885 11.2966 9.69038 10.5985 9.69038 9.74043C9.69038 8.88229 10.3885 8.18418 11.2466 8.18418H14.2591C14.6475 8.18418 14.9623 7.86937 14.9623 7.48105C14.9623 7.09274 14.6475 6.77793 14.2591 6.77793H12.7029V5.22168C12.7029 4.83337 12.3881 4.51855 11.9998 4.51855C11.6115 4.51855 11.2966 4.83337 11.2966 5.22168V6.77793H11.2467C9.61313 6.77793 8.28418 8.10693 8.28418 9.74043C8.28418 11.3739 9.61318 12.7029 11.2467 12.7029H12.753C13.6111 12.7029 14.3092 13.401 14.3092 14.2591C14.3092 15.1172 13.6111 15.8154 12.753 15.8154H9.74045C9.35213 15.8154 9.03732 16.1302 9.03732 16.5185C9.03732 16.9068 9.35213 17.2216 9.74045 17.2216H11.2966V18.7779C11.2966 19.1662 11.6115 19.4811 11.9998 19.4811C12.3881 19.4811 12.7029 19.1662 12.7029 18.7779V17.2216H12.7529C14.3864 17.2216 15.7154 15.8926 15.7154 14.2591C15.7154 12.6256 14.3864 11.2966 12.7529 11.2966Z" fill="#B4BABC"/>
</svg>
