<svg width="17" height="20" viewBox="0 0 17 20" fill="none" xmlns="http://www.w3.org/2000/svg">
  <path d="M15.922 8.62121C15.9049 8.61549 15.8874 8.61043 15.8699 8.60604L13.1586 7.92753L10.9162 6.24866C12.397 4.94906 12.5438 2.69507 11.2442 1.21427C9.94459 -0.266523 7.6906 -0.413386 6.20981 0.886224C4.80054 2.12304 4.5893 4.23974 5.72629 5.73069H5.70772C5.51851 5.73074 5.33708 5.80594 5.2033 5.93972L0.208913 10.9341C-0.0696376 11.2127 -0.0696376 11.6644 0.208913 11.943L1.63586 13.3699C1.89292 13.6271 2.30228 13.6498 2.58623 13.4227L4.99423 11.4963V12.7806L4.36924 15.2821L2.4578 16.5528C2.12996 16.7714 2.04146 17.2144 2.26006 17.5422C2.2601 17.5423 2.26014 17.5423 2.26014 17.5424L3.68709 19.6828C3.89901 19.9992 4.322 20.0934 4.64816 19.8969L8.21556 17.7564C8.3615 17.6688 8.47136 17.5319 8.52521 17.3704L8.77709 16.6141L10.8219 19.6821C11.0215 19.9815 11.4126 20.0855 11.7345 19.9247L14.5884 18.4978C14.941 18.3219 15.0842 17.8934 14.9083 17.5408C14.9082 17.5406 14.9081 17.5405 14.908 17.5403L12.7676 13.2594C12.7542 13.2328 12.7392 13.2071 12.7227 13.1823L11.6746 11.6127L14.8652 12.1442C14.9042 12.1503 14.9436 12.1529 14.983 12.1521C15.2902 12.1522 15.563 11.9555 15.66 11.664L16.3735 9.52359C16.498 9.14968 16.2959 8.74567 15.922 8.62121ZM8.56167 1.4498C9.7438 1.4498 10.7021 2.40811 10.7021 3.59025C10.7021 4.77239 9.7438 5.73069 8.56167 5.73069C7.37953 5.73069 6.42122 4.77239 6.42122 3.59025C6.42122 2.40811 7.37953 1.4498 8.56167 1.4498ZM7.2524 16.6705L4.49482 18.325L3.84127 17.344L5.38812 16.313C5.53574 16.2144 5.64134 16.0643 5.68423 15.8921L6.13728 14.0813L7.71978 15.2678L7.2524 16.6705ZM13.3099 17.5402L11.6575 18.3664L9.15313 14.6092C9.12989 14.5801 9.10409 14.5532 9.07608 14.5286C9.05439 14.5028 9.03051 14.4789 9.00472 14.4572C8.99686 14.4508 8.99189 14.4416 8.98403 14.4351L6.42122 12.5087V10.0116C6.42139 9.61752 6.10203 9.29796 5.70802 9.29784C5.54581 9.2978 5.38846 9.35298 5.26183 9.45436L2.19384 11.9094L1.72223 11.4385L6.00312 7.15764H9.37006L9.99576 11.5398C10.0109 11.6452 10.0494 11.7459 10.1085 11.8345L11.5105 13.9357L13.3099 17.5402ZM14.4964 10.6337L11.2301 10.0901L10.9383 8.04806L12.4145 9.15541C12.4905 9.21239 12.577 9.25361 12.6692 9.27668L14.7761 9.80322L14.4964 10.6337Z" fill="#B4BABC"/>
</svg>
